<svg width="508" height="94" viewBox="0 0 508 94" fill="none" xmlns="http://www.w3.org/2000/svg">
<path d="M28.5 74.4C43.7 74.4 54.5 66.4 54.5 52.9C54.5 38.1 42.6 34.4 32 31.2C21.1 27.9 19.4 25.7 19.4 22.5C19.4 19.7 21.9 17.2 26.9 17.2C33.3 17.2 36.6 20.3 39 25.3L52.5 17.4C47.4 7.1 38.4 1.6 26.9 1.6C14.8 1.6 3.4 9.4 3.4 22.9C3.4 36.3 13.6 41.3 24 44.2C34.5 47.1 38.5 48.8 38.5 53.1C38.5 55.8 36.6 58.8 29 58.8C21.1 58.8 16.8 54.9 14.3 49.1L0.5 57.1C4.4 67.4 13.8 74.4 28.5 74.4Z" fill="#EB5286"/>
<path d="M109.996 73L91.2961 48L109.496 23H91.9961L76.9961 44.9V3H61.9961V73H76.9961V50.9L92.9961 73H109.996Z" fill="#EB5286"/>
<path d="M125.884 54H161.384C161.784 52.1 161.984 50.1 161.984 48C161.984 32.9 151.184 21.6 136.584 21.6C120.784 21.6 109.984 33.1 109.984 48C109.984 62.9 120.584 74.4 137.684 74.4C147.184 74.4 154.584 70.9 159.484 64.1L147.484 57.2C145.484 59.4 141.984 61 137.884 61C132.384 61 127.784 59.2 125.884 54ZM125.584 42.8C126.984 37.7 130.784 34.9 136.484 34.9C140.984 34.9 145.484 37 147.084 42.8H125.584Z" fill="#EB5286"/>
<path d="M170.492 73H185.492V0H170.492V73Z" fill="#EB5286"/>
<path d="M209.869 54H245.369C245.769 52.1 245.969 50.1 245.969 48C245.969 32.9 235.169 21.6 220.569 21.6C204.769 21.6 193.969 33.1 193.969 48C193.969 62.9 204.569 74.4 221.669 74.4C231.169 74.4 238.569 70.9 243.469 64.1L231.469 57.2C229.469 59.4 225.969 61 221.869 61C216.369 61 211.769 59.2 209.869 54ZM209.569 42.8C210.969 37.7 214.769 34.9 220.469 34.9C224.969 34.9 229.469 37 231.069 42.8H209.569Z" fill="#EB5286"/>
<path d="M284.423 23L274.023 54.7L263.623 23H247.023L265.523 73H282.523L301.023 23H284.423Z" fill="#EB5286"/>
<path d="M317.974 54H353.474C353.874 52.1 354.074 50.1 354.074 48C354.074 32.9 343.274 21.6 328.674 21.6C312.874 21.6 302.074 33.1 302.074 48C302.074 62.9 312.674 74.4 329.774 74.4C339.274 74.4 346.674 70.9 351.574 64.1L339.574 57.2C337.574 59.4 334.074 61 329.974 61C324.474 61 319.874 59.2 317.974 54ZM317.674 42.8C319.074 37.7 322.874 34.9 328.574 34.9C333.074 34.9 337.574 37 339.174 42.8H317.674Z" fill="#EB5286"/>
<path d="M391.882 21.6C385.282 21.6 380.282 24 377.582 27.7V23H362.582V73H377.582V45.7C377.582 38.6 381.382 35.4 386.882 35.4C391.682 35.4 395.582 38.3 395.582 44.5V73H410.582V42.3C410.582 28.8 401.982 21.6 391.882 21.6Z" fill="#EB5286"/>
<path d="M450.183 37.4V23H439.883V9L424.883 13.5V23H416.883V37.4H424.883V55.1C424.883 69.1 430.583 75 450.183 73V59.4C443.583 59.8 439.883 59.4 439.883 55.1V37.4H450.183Z" fill="#EB5286"/>
<path d="M491.152 23L481.752 53.6L470.652 23H454.152L474.052 70.7C471.852 76.8 468.552 79 461.552 79V93C475.552 93.7 484.452 87.4 490.052 71.5L507.152 23H491.152Z" fill="#EB5286"/>
</svg>
