<svg viewBox="0 0 406 73" version="1.1" xmlns="http://www.w3.org/2000/svg" xmlns:xlink="http://www.w3.org/1999/xlink">
    <path d="M27.585,72.358 C42.329,72.358 52.805,64.598 52.805,51.503 C52.805,37.147 41.262,33.558 30.98,30.454 C20.407,27.253 18.758,25.119 18.758,22.015 C18.758,19.299 21.183,16.874 26.033,16.874 C32.241,16.874 35.442,19.881 37.77,24.731 L50.865,17.068 C45.918,7.077 37.188,1.742 26.033,1.742 C14.296,1.742 3.238,9.308 3.238,22.403 C3.238,35.401 13.132,40.251 23.22,43.064 C33.405,45.877 37.285,47.526 37.285,51.697 C37.285,54.316 35.442,57.226 28.07,57.226 C20.407,57.226 16.236,53.443 13.811,47.817 L0.425,55.577 C4.208,65.568 13.326,72.358 27.585,72.358 Z M109.64,71 L91.501,46.75 L109.155,22.5 L92.18,22.5 L77.63,43.743 L77.63,3.1 L63.08,3.1 L63.08,71 L77.63,71 L77.63,49.563 L93.15,71 L109.64,71 Z M128.063,52.57 C129.906,57.614 134.368,59.36 139.703,59.36 C143.68,59.36 147.075,57.808 149.015,55.674 L160.655,62.367 C155.902,68.963 148.724,72.358 139.509,72.358 C122.922,72.358 112.64,61.203 112.64,46.75 C112.64,32.297 123.116,21.142 138.442,21.142 C152.604,21.142 163.08,32.103 163.08,46.75 C163.08,48.787 162.886,50.727 162.498,52.57 L128.063,52.57 Z M127.772,41.706 L148.627,41.706 C147.075,36.08 142.71,34.043 138.345,34.043 C132.816,34.043 129.13,36.759 127.772,41.706 Z M174.325,71 L188.875,71 L188.875,0.19 L174.325,0.19 L174.325,71 Z M215.543,52.57 C217.386,57.614 221.848,59.36 227.183,59.36 C231.16,59.36 234.555,57.808 236.495,55.674 L248.135,62.367 C243.382,68.963 236.204,72.358 226.989,72.358 C210.402,72.358 200.12,61.203 200.12,46.75 C200.12,32.297 210.596,21.142 225.922,21.142 C240.084,21.142 250.56,32.103 250.56,46.75 C250.56,48.787 250.366,50.727 249.978,52.57 L215.543,52.57 Z M215.252,41.706 L236.107,41.706 C234.555,36.08 230.19,34.043 225.825,34.043 C220.296,34.043 216.61,36.759 215.252,41.706 Z M288.771,36.468 L288.771,22.5 L278.78,22.5 L278.78,8.92 L264.23,13.285 L264.23,22.5 L256.47,22.5 L256.47,36.468 L264.23,36.468 L264.23,53.637 C264.23,67.217 269.759,72.94 288.771,71 L288.771,57.808 C282.369,58.196 278.78,57.808 278.78,53.637 L278.78,36.468 L288.771,36.468 Z M322.326,72.358 C308.067,72.358 296.621,61.203 296.621,46.75 C296.621,32.297 308.067,21.142 322.326,21.142 C336.585,21.142 348.031,32.297 348.031,46.75 C348.031,61.203 336.585,72.358 322.326,72.358 Z M322.326,58.196 C328.631,58.196 333.481,53.637 333.481,46.75 C333.481,39.863 328.631,35.304 322.326,35.304 C316.021,35.304 311.171,39.863 311.171,46.75 C311.171,53.637 316.021,58.196 322.326,58.196 Z M387.697,21.142 C381.295,21.142 376.445,23.47 373.826,27.059 L373.826,22.5 L359.276,22.5 L359.276,71 L373.826,71 L373.826,44.519 C373.826,37.632 377.512,34.528 382.847,34.528 C387.503,34.528 391.286,37.341 391.286,43.355 L391.286,71 L405.836,71 L405.836,41.221 C405.836,28.126 397.494,21.142 387.697,21.142 Z"></path>
</svg>
