<svg xmlns="http://www.w3.org/2000/svg" xmlns:xlink="http://www.w3.org/1999/xlink" width="0" height="0" style="position:absolute">

<symbol id="icon-calender" viewBox="0 0 30 30">
        <path d="M30 27.9V6.4c0-.6-.2-1.1-.7-1.5-.5-.4-1-.6-1.6-.6h-2.3V2.7c0-.7-.3-1.3-.8-1.9S23.3 0 22.5 0h-1.2c-.8 0-1.5.3-2 .8s-.8 1.1-.8 1.9v1.6h-6.9V2.7c0-.7-.3-1.3-.9-1.9S9.4 0 8.7 0H7.5c-.8 0-1.5.3-2 .8s-.9 1.1-.9 1.9v1.6H2.3c-.6 0-1.2.2-1.6.6-.4.4-.7.9-.7 1.5v21.4c0 .6.2 1.1.7 1.5s1 .6 1.6.6h25.4c.6 0 1.2-.2 1.6-.6s.7-.8.7-1.4zm-2.3 0h-5.2V23h5.2v4.9zm0-5.9h-5.2v-5.3h5.2V22zm0-6.5h-5.2v-4.8h5.2v4.8zm-4.6-8c0 .1-.1.3-.2.4s-.3.2-.4.1h-1.2c-.2 0-.3 0-.4-.1-.1-.1-.2-.2-.2-.4V2.7c0-.1.1-.3.2-.4s.3-.2.4-.2h1.2c.2 0 .3.1.4.2.1.1.2.2.2.4v4.8zm-1.8 20.4h-5.7V23h5.7v4.9zm0-5.9h-5.7v-5.3h5.7V22zm0-6.5h-5.7v-4.8h5.7v4.8zm-6.9 12.4H8.7V23h5.8v4.9zm0-5.9H8.7v-5.3h5.8V22zm0-6.5H8.7v-4.8h5.8v4.8zm-5.2-8c0 .1-.1.3-.2.4 0 .1-.2.2-.3.1H7.5c-.1 0-.3 0-.4-.1-.1-.1-.2-.2-.2-.4V2.7c0-.1.1-.3.2-.4.1-.1.2-.2.4-.2h1.1c.2 0 .3.1.4.2.1.1.2.2.2.4v4.8zM7.5 27.9H2.3V23h5.2v4.9zm0-5.9H2.3v-5.3h5.2V22zm0-6.5H2.3v-4.8h5.2v4.8z"/>
</symbol>

<symbol id="icon-chevron" viewBox="0 0 80 32">
    <path d="M50.286 5.486l-5.867-5.486-19.276 18.024-19.276-18.024-5.867 5.486 25.143 23.51z"></path>
</symbol>

<symbol id="icon-close" viewBox="0 0 24 24">
        <path d="M19 6.41L17.59 5 12 10.59 6.41 5 5 6.41 10.59 12 5 17.59 6.41 19 12 13.41 17.59 19 19 17.59 13.41 12z"/>
</symbol>

<symbol id="icon-comment" viewBox="0 0 30 30">
        <path d="M30 10.9c0-2-.5-3.8-1.6-5.5s-2.5-3-4.3-4c-1.8-1-3.8-1.5-5.9-1.5s-4.1.5-5.9 1.5-3.2 2.3-4.3 4-1.6 3.5-1.6 5.5.6 3.8 1.6 5.5 2.5 3 4.3 4c1.8 1 3.8 1.5 5.9 1.5 1 0 1.9-.1 2.9-.3 1.4 1.3 3 2.2 4.6 2.7.4.1.9.2 1.4.3h.1c.1 0 .2-.1.4-.2.1-.1.2-.3.2-.4v-.6l-.1-.1c0-.1-.1-.1-.1-.1l-.1-.1V23c-.1-.1-.2-.3-.4-.5-.2-.3-.4-.5-.5-.6s-.2-.3-.4-.6c-.1-.3-.3-.6-.4-.8-.1-.2-.2-.5-.3-1 1.4-1 2.5-2.3 3.2-3.7.9-1.6 1.3-3.2 1.3-4.9zM19.7 24.4c-.6.1-1.1.1-1.5.1-1.8 0-3.5-.3-5.2-1-1.6-.6-3.1-1.6-4.4-2.7-1.4-1.3-2.5-2.8-3.2-4.5s-1.1-3.5-1.1-5.4c0-1.1.1-2.2.4-3.2-1.4 1-2.6 2.3-3.4 3.8S0 14.6 0 16.3c0 1.7.4 3.3 1.2 4.8.8 1.5 1.9 2.7 3.2 3.7-.1.4-.2.7-.3 1-.1.3-.3.5-.4.8-.2.3-.3.5-.4.6s-.2.4-.4.6c-.2.3-.3.5-.4.5l-.1.1c0 .1-.1.1-.1.1s0 .1-.1.1c0 .1 0 .1-.1.1v.5c0 .2.1.4.2.5.2.3.3.3.5.3.5-.1 1-.2 1.4-.3 1.7-.6 3.2-1.5 4.7-2.7 1 .2 2 .3 2.9.3 3-.1 5.6-1 7.9-2.9z"/>
</symbol>

<symbol id="icon-email" viewBox="0 0 30 30">
        <path d="M4.1 25.3c-1.2 0-2.1-.4-2.9-1.2-.8-.8-1.2-1.8-1.2-3V8.9c0-1.2.4-2.2 1.2-3C2 5.1 3 4.7 4.1 4.7h21.8c1.2 0 2.1.4 2.9 1.3.8.8 1.2 1.8 1.2 3v12.2c0 1.2-.4 2.2-1.2 3-.8.8-1.8 1.2-2.9 1.2H4.1zm-1.3-4c0 .3.2.5.4.7.3.3.6.4.9.4h21.8c.4 0 .7-.2.9-.4.2-.2.3-.4.4-.7l-6.6-5.1-3.7 2.8c-.6.5-1.2.7-1.9.7s-1.4-.2-2-.7l-3.7-2.8-6.5 5.1zm24.4-2.4v-7.8l-5 3.9 5 3.9zm-24.4 0l5-3.9-5-3.9v7.8zm11.4-1.4c.2.2.5.3.8.3s.6-.1.8-.3l3.7-2.9.8-.6 6.9-5.4c0-.3-.2-.5-.4-.7-.3-.3-.6-.4-.9-.4H4c-.3 0-.6.1-.9.4-.1.3-.2.5-.3.8l11.4 8.8z"/>
</symbol>

<symbol id="icon-enquiry" viewBox="0 0 24 24">
        <path d="M20 4H4c-1.1 0-1.99.9-1.99 2L2 18c0 1.1.9 2 2 2h16c1.1 0 2-.9 2-2V6c0-1.1-.9-2-2-2zm0 4l-8 5-8-5V6l8 5 8-5v2z"/>
</symbol>

<symbol id="icon-facebook" viewBox="0 0 30 30">
        <path d="M22 0h-4.8c-2.9 0-6 1.2-6 5.3v4.4H7.9v5.2h3.4V30h6.2V14.8h4.1l.4-5.2h-4.6v-3c0-1.6 1.7-1.5 1.8-1.5H22V0z"/>
</symbol>

<symbol id="icon-instagram" viewBox="0 0 35 35">
    <path d="M17.4987 10.7581C13.7741 10.7581 10.7568 13.7769 10.7568 17.5C10.7568 21.2246 13.7741 24.2433 17.4987 24.2433C21.2204 24.2433 24.2406 21.2246 24.2406 17.5C24.2406 13.7769 21.2204 10.7581 17.4987 10.7581ZM17.4987 21.8808C15.0793 21.8808 13.1179 19.9194 13.1179 17.5015C13.1179 15.0821 15.0793 13.1221 17.4987 13.1221C19.9181 13.1221 21.8766 15.0821 21.8766 17.5015C21.8766 19.9194 19.9181 21.8808 17.4987 21.8808Z" />
    <path d="M24.5086 12.0823C25.3768 12.0823 26.0807 11.3784 26.0807 10.5102C26.0807 9.64197 25.3768 8.93812 24.5086 8.93812C23.6404 8.93812 22.9365 9.64197 22.9365 10.5102C22.9365 11.3784 23.6404 12.0823 24.5086 12.0823Z" />
    <path d="M29.944 8.91187C29.26 7.14875 27.8673 5.75458 26.1042 5.07354C25.0848 4.69 24.0071 4.48437 22.9163 4.46104C21.5119 4.39979 21.0671 4.38229 17.5058 4.38229C13.9446 4.38229 13.4881 4.38229 12.0954 4.46104C11.0075 4.48291 9.92981 4.68854 8.91043 5.07354C7.14585 5.75458 5.75314 7.14875 5.07064 8.91187C4.6871 9.93271 4.48147 11.009 4.4596 12.0998C4.39689 13.5027 4.37793 13.9475 4.37793 17.5102C4.37793 21.0715 4.37793 21.525 4.4596 22.9206C4.48147 24.0115 4.6871 25.0877 5.07064 26.11C5.7546 27.8717 7.14731 29.2658 8.91189 29.9483C9.92689 30.345 11.0046 30.5696 12.0983 30.6046C13.5027 30.6658 13.9475 30.6848 17.5088 30.6848C21.07 30.6848 21.5265 30.6848 22.9192 30.6046C24.0086 30.5827 25.0863 30.3756 26.1071 29.9935C27.8702 29.3096 29.2629 27.9169 29.9469 26.1537C30.3304 25.1329 30.5361 24.0567 30.5579 22.9658C30.6206 21.5629 30.6396 21.1181 30.6396 17.5554C30.6396 13.9927 30.6396 13.5406 30.5579 12.145C30.539 11.0396 30.3348 9.94437 29.944 8.91187ZM28.1677 22.8127C28.1575 23.6527 28.0059 24.4854 27.7142 25.2744C27.2694 26.4221 26.3638 27.3292 25.2175 27.7696C24.4373 28.0598 23.6148 28.2115 22.7821 28.2231C21.3967 28.2873 21.0059 28.3033 17.4534 28.3033C13.8979 28.3033 13.5348 28.3033 12.1231 28.2231C11.2933 28.2129 10.4679 28.0598 9.68918 27.7696C8.53856 27.3306 7.6271 26.4235 7.18231 25.2744C6.89647 24.4956 6.74189 23.6717 6.72876 22.8404C6.66605 21.455 6.65147 21.0642 6.65147 17.5117C6.65147 13.9577 6.65147 13.5946 6.72876 12.1815C6.73897 11.3415 6.89064 10.5102 7.18231 9.72125C7.6271 8.57062 8.53856 7.665 9.68918 7.22458C10.4679 6.93583 11.2933 6.78271 12.1231 6.77104C13.51 6.70833 13.8994 6.69083 17.4534 6.69083C21.0073 6.69083 21.3719 6.69083 22.7821 6.77104C23.6148 6.78125 24.4373 6.93437 25.2175 7.22458C26.3638 7.66646 27.2694 8.57354 27.7142 9.72125C28 10.5 28.1546 11.324 28.1677 12.1552C28.2304 13.5421 28.2465 13.9315 28.2465 17.4854C28.2465 21.0379 28.2465 21.42 28.1838 22.8142H28.1677V22.8127Z" />
</symbol>

<symbol id="icon-linkedin" viewBox="0 0 30 30">
        <path d="M3.2.3C1.3.3 0 1.6 0 3.4c0 1.7 1.3 3.1 3.2 3.1 2 0 3.3-1.4 3.3-3.1C6.5 1.6 5.2.3 3.2.3zm-3 29.4h6.1v-21H.2v21zM22.9 9c-2 0-4-.4-6.1 2.9h-.1l-.1-3.2h-5.4c.1 1.7.1 4.3.1 6.8v14.2h6.1V17.6c0-.6.1-1.1.2-1.5.4-1.1 1.4-2.3 3.1-2.3 2.2 0 3.1 1.7 3.1 4.3v11.7H30V17.3c0-5.9-3-8.3-7.1-8.3z"/>
</symbol>

<symbol id="icon-menu" viewBox="0 0 24 24">
    <path d="M3 18h18v-2H3v2zm0-5h18v-2H3v2zm0-7v2h18V6H3z"/>
</symbol>

<symbol id="icon-phone" viewBox="0 0 24 24">
<path d="M6.62 10.79c1.44 2.83 3.76 5.14 6.59 6.59l2.2-2.2c.27-.27.67-.36 1.02-.24 1.12.37 2.33.57 3.57.57.55 0 1 .45 1 1V20c0 .55-.45 1-1 1-9.39 0-17-7.61-17-17 0-.55.45-1 1-1h3.5c.55 0 1 .45 1 1 0 1.25.2 2.45.57 3.57.11.35.03.74-.25 1.02l-2.2 2.2z"/>
</symbol>

<symbol id="icon-search" viewBox="0 0 24 24">
        <path d="M15.5 14h-.79l-.28-.27C15.41 12.59 16 11.11 16 9.5 16 5.91 13.09 3 9.5 3S3 5.91 3 9.5 5.91 16 9.5 16c1.61 0 3.09-.59 4.23-1.57l.27.28v.79l5 4.99L20.49 19l-4.99-5zm-6 0C7.01 14 5 11.99 5 9.5S7.01 5 9.5 5 14 7.01 14 9.5 11.99 14 9.5 14z"/>
</symbol>

<symbol id="icon-share" viewBox="0 0 30 30">
        <path d="M2.1 28.3c.1.1.1.2.2.4s.1.4.2.6c.1.2.2.3.2.4.2.2.3.3.5.3s.3-.1.4-.2c.1-.1.2-.3.2-.5v-.5c0-.2-.1-.3-.1-.4-.1-.9-.1-1.6-.1-2.3 0-1.3.1-2.4.3-3.4.2-1 .5-1.9.8-2.6.3-.7.8-1.4 1.3-1.9s1.1-1 1.8-1.3 1.4-.6 2.2-.8c.9-.2 1.7-.3 2.6-.4.9-.1 1.8-.1 2.9-.1h3.8v4.8c0 .3.1.6.3.8.2.2.5.4.8.4.3 0 .5-.1.8-.4l8.5-9.6c.2-.2.3-.5.3-.8 0-.3-.1-.6-.3-.8L21.2.4c-.3-.3-.5-.4-.8-.4-.3 0-.6.1-.8.3s-.3.5-.3.8V6h-3.8C7.5 6 2.7 8.5.9 13.6c-.6 1.6-.9 3.7-.9 6.2 0 2.1.7 4.9 2.1 8.5z"/>
</symbol>

<symbol id="icon-subscribe" viewBox="0 0 30 30">
        <path d="M1.1 23.6c-.7.7-1 1.6-1.1 2.6 0 1 .3 1.9 1.1 2.6.8.8 1.6 1.2 2.6 1.2s1.9-.4 2.7-1.1c.8-.7 1.1-1.6 1.1-2.6s-.4-1.9-1.1-2.6c-.7-.7-1.6-1.1-2.7-1.1-1.1-.1-1.9.3-2.6 1zm0-22.5C.4 1.9 0 2.7 0 3.7s.4 1.9 1.1 2.6 1.6 1.1 2.7 1.1c5.2 0 9.6 1.8 13.3 5.5s5.5 8.1 5.5 13.3c0 1 .3 1.9 1.1 2.6.7.8 1.6 1.1 2.7 1.1 1 0 1.9-.4 2.7-1.1.7-.7 1.1-1.6 1.1-2.6 0-4.7-1.2-9.1-3.5-13.1s-5.6-7.2-9.6-9.6S8.5 0 3.7 0c-1 0-1.9.4-2.6 1.1zm0 11.3C.4 13.1 0 14 0 15s.4 1.9 1.1 2.6c.7.7 1.6 1.1 2.7 1.1 2 0 3.8.8 5.3 2.2s2.2 3.2 2.2 5.3c0 1 .4 1.9 1.1 2.6.6.9 1.5 1.2 2.6 1.2s2-.4 2.7-1.1c.7-.7 1.1-1.6 1.1-2.6 0-4.1-1.4-7.7-4.4-10.6s-6.5-4.4-10.6-4.4c-1.1 0-2 .4-2.7 1.1z"/>
</symbol>

<symbol id="icon-twitter" viewBox="0 0 30 30">
        <path d="M30 5.7c-1.1.5-2.3.8-3.5 1 1.3-.8 2.2-2 2.7-3.4-1.2.7-2.5 1.2-3.9 1.5-1.1-1.2-2.7-1.9-4.5-1.9-3.4 0-6.2 2.8-6.2 6.2 0 .5.1 1 .2 1.4-5.1-.4-9.7-2.8-12.7-6.6-.5.9-.8 2-.8 3.1 0 2.1 1.1 4 2.7 5.1-1 0-2-.3-2.8-.8v.1c0 3 2.1 5.5 4.9 6-.5.1-1.1.2-1.6.2-.4 0-.8 0-1.2-.1.8 2.4 3.1 4.2 5.7 4.3-2.1 1.7-4.8 2.6-7.6 2.6-.5 0-1 0-1.5-.1 2.7 1.7 6 2.8 9.4 2.8 11.3 0 17.5-9.4 17.5-17.5v-.8c1.3-.8 2.4-1.9 3.2-3.1z"/>
</symbol>

<symbol id="icon-youtube" viewBox="0 0 30 30">
        <path d="M29.7 8.8s-.1-4.4-4.6-4.5c-4.5-.2-9.6-.3-9.6-.3h-.9s-5.2.1-9.7.3C.3 4.5.3 8.6.3 8.6s-.6 6.6-.1 11.5c.4 3.7 1.2 5.2 5.5 5.4 4.3.2 8.8.5 8.8.5h.9s4.5-.2 8.8-.4c4.3-.2 5.1-1.5 5.5-5.2.6-5 0-11.6 0-11.6zM12 19.2v-8.5l8.1 4.3-8.1 4.2z"/>
</symbol>
</svg>
