<svg width="16" height="16" viewBox="0 0 16 16" fill="none" xmlns="http://www.w3.org/2000/svg">
<style>@media (prefers-color-scheme: light) {.favicon { fill: #01093C }}</style>
<path class="favicon" d="M8.22222 16C11.6 16 14 14.2418 14 11.2747C14 8.02198 11.3556 7.20879 9 6.50549C6.57778 5.78022 6.2 5.2967 6.2 4.59341C6.2 3.97802 6.75556 3.42857 7.86667 3.42857C9.28889 3.42857 10.0222 4.10989 10.5556 5.20879L13.5556 3.47253C12.4222 1.20879 10.4222 0 7.86667 0C5.17778 0 2.64444 1.71429 2.64444 4.68132C2.64444 7.62637 4.91111 8.72527 7.22222 9.36264C9.55556 10 10.4444 10.3736 10.4444 11.3187C10.4444 11.9121 10.0222 12.5714 8.33333 12.5714C6.57778 12.5714 5.62222 11.7143 5.06667 10.4396L2 12.1978C2.86667 14.4615 4.95556 16 8.22222 16Z" fill="#24E0D0"/>
</svg>
